<svg xmlns="http://www.w3.org/2000/svg" viewBox="-8 -10 136 136" width="512" height="512"><defs>
<radialGradient id="pip-oops-fur" cx="38%" cy="30%" r="75%"><stop offset="0" stop-color="#F27A70"/><stop offset="0.55" stop-color="#E4544B"/><stop offset="1" stop-color="#C9443A"/></radialGradient>
<radialGradient id="pip-oops-belly" cx="50%" cy="35%" r="70%"><stop offset="0" stop-color="#FBE9E6"/><stop offset="1" stop-color="#F5CFC8"/></radialGradient>
<filter id="pip-oops-edge" x="-20%" y="-20%" width="140%" height="140%">
<feMorphology in="SourceAlpha" operator="dilate" radius="3" result="d"/><feGaussianBlur in="d" stdDeviation="1.6" result="db"/>
<feComponentTransfer in="db" result="grow"><feFuncA type="discrete" tableValues="0 1 1 1 1 1 1 1"/></feComponentTransfer>
<feFlood flood-color="#fff"/><feComposite in2="grow" operator="in" result="edge"/>
<feGaussianBlur in="grow" stdDeviation="2.5" result="blur"/><feOffset in="blur" dy="3" result="off"/>
<feFlood flood-color="#1C1917" flood-opacity="0.16"/><feComposite in2="off" operator="in" result="shadow"/>
<feMerge><feMergeNode in="shadow"/><feMergeNode in="edge"/><feMergeNode in="SourceGraphic"/></feMerge>
</filter>
</defs>
<g filter="url(#pip-oops-edge)">
<path d="M46 100 q-2 7 -7 8 M46 100 q0 8 2 9 M46 100 q3 7 7 7 M72 100 q-3 7 -7 7 M72 100 q0 8 -2 9 M72 100 q2 7 7 8" stroke="#C9443A" stroke-width="3.2" fill="none" stroke-linecap="round"/>
<path d="M90 78 q16 -4 20 -16 q-6 14 -2 22 q-8 -2 -18 2z" fill="#C9443A"/>
<path d="M60 22 c22 0 36 18 36 42 c0 24 -16 40 -36 40 c-20 0 -36 -16 -36 -40 c0 -24 14 -42 36 -42z" fill="url(#pip-oops-fur)"/>
<path d="M54 24 q-2 -12 6 -14 q-4 6 2 12 q2 -10 10 -9 q-6 4 -4 11z" fill="#E4544B"/>
<path d="M60 58 c14 0 22 10 22 22 c0 12 -10 19 -22 19 c-12 0 -22 -7 -22 -19 c0 -12 8 -22 22 -22z" fill="url(#pip-oops-belly)"/>
<path d="M60 61 c12 0 19 8 19 19 c0 10 -8 16 -19 16 c-11 0 -19 -6 -19 -16 c0 -11 7 -19 19 -19z" fill="none" stroke="#E9A69E" stroke-width="1.1" stroke-dasharray="2.4 2.4"/>
<path d="M26 62 q-10 8 -6 22 q8 -4 12 -14z M94 62 q10 8 6 22 q-8 -4 -12 -14z" fill="#D04A41"/>
<path d="M44 43 l8 6 M52 43 l-8 6 M68 43 l8 6 M76 43 l-8 6" stroke="#1C1917" stroke-width="2.4" stroke-linecap="round"/><path d="M55 55 q5 -3 10 0 q-5 6 -10 0z" fill="#F2B15F"/><ellipse cx="40" cy="55" rx="5" ry="3" fill="#F7A39B" opacity="0.8"/><ellipse cx="80" cy="55" rx="5" ry="3" fill="#F7A39B" opacity="0.8"/>
<g transform="rotate(-25 74 34)"><rect x="62" y="29" width="26" height="10" rx="5" fill="#F2D6B3"/><circle cx="72" cy="34" r="1" fill="#C9A47A"/><circle cx="78" cy="34" r="1" fill="#C9A47A"/></g>
</g>
</svg>
